# xmcd
#
# Track frame offsets: 
#        150
#        28590
#        55010
#        81552
#        106722
#        127122
#        150167
#        165742
#        189480
#        207837
#
# Disc length: 3050 seconds
#
# Revision: 0
# Processed by: cddbd v1.5.2PL0 Copyright (c) Steve Scherf et al.
# Submitted via: ExactAudioCopy v1.0b3
#
DISCID=790be80a
DTITLE=Che Linh, Thanh Tuyen - Mai Lo Hai Minh Xa Nhau CD1
DYEAR=2002
DGENRE=Blues
TTITLE0=Ngay xua anh noi
TTITLE1=Thanh Tuyen - Le bong
TTITLE2=Thanh Tuyen - Chieu mua bien gioi
TTITLE3=Chuyen di ve sang
TTITLE4=Thanh Tuyen - Ve duoi mai nha
TTITLE5=Che Linh - Xin yeu toi bang tinh nguoi
TTITLE6=Con duong mang ten em
TTITLE7=Thanh Tuyen - Chuyen ba nguoi
TTITLE8=Thanh Tuyen - Noi buon hoa phuong
TTITLE9=LK Mai lo hai minh xa nhau, Dung noi xa nhau
EXTD=
EXTT0=
EXTT1=
EXTT2=
EXTT3=
EXTT4=
EXTT5=
EXTT6=
EXTT7=
EXTT8=
EXTT9=
PLAYORDER=
